<?xml version="1.0" encoding="UTF-8"?>
<svg version="1.1" xmlns="http://www.w3.org/2000/svg" width="500" height="500">
<path d="M0 0 C7.39961509 0.92722305 14.31777249 2.97540875 21.4375 5.125 C22.1098468 5.32763458 22.7821936 5.53026917 23.47491455 5.73904419 C53.50336056 14.84230382 80.36202244 29.75197531 95.75 58.25 C103.57021195 73.32468513 107.26099476 89.18961604 109 106 C109.33 106.33 109.66 106.66 110 107 C110.21914062 106.31035156 110.43828125 105.62070313 110.6640625 104.91015625 C115.10903884 91.73784831 122.36668762 81.52168216 134.9375 75.125 C145.15408136 70.08122275 154.2908473 69.72509567 165.5625 69.875 C166.85736328 69.88402344 168.15222656 69.89304687 169.48632812 69.90234375 C172.65774771 69.92574906 175.82877373 69.95853772 179 70 C178.61110596 70.49048828 178.22221191 70.98097656 177.8215332 71.48632812 C174.34989757 75.9702788 171.58526062 80.37321349 169.1875 85.5 C166.37665023 91.29509835 163.44768541 96.9981153 160.3125 102.625 C159.95631592 103.27533203 159.60013184 103.92566406 159.2331543 104.59570312 C153.27001468 115.20295956 144.304618 123.2086146 132.5 126.75 C123.42465753 127.65753425 123.42465753 127.65753425 119.5625 125.875 C117.48338547 123.38006257 117.44202255 121.16711301 117 118 C116.18525038 120.8952173 115.37312678 123.79112828 114.5625 126.6875 C114.33240234 127.50412109 114.10230469 128.32074219 113.86523438 129.16210938 C113.64287109 129.95810547 113.42050781 130.75410156 113.19140625 131.57421875 C112.98717041 132.30213623 112.78293457 133.03005371 112.57250977 133.7800293 C111.28753055 138.76268006 110.77240807 143.58185609 110.53515625 148.71484375 C110.45664748 150.22071708 110.37786293 151.72657606 110.29882812 153.23242188 C110.17928608 155.5866883 110.06233314 157.9410114 109.95043945 160.2956543 C109.84026174 162.58166252 109.71962832 164.86693856 109.59765625 167.15234375 C109.55222435 168.19792702 109.55222435 168.19792702 109.50587463 169.26463318 C109.27311378 173.48089419 108.51152117 177.05961803 107 181 C104.69 180.67 102.38 180.34 100 180 C98.18999247 175.31801637 97.63865935 170.99369346 97.47265625 166.0234375 C97.40418865 164.45921541 97.33541083 162.89500688 97.26635742 161.33081055 C97.2170961 160.11571304 97.2170961 160.11571304 97.1668396 158.87606812 C96.08832162 133.02349682 93.48090983 110.0195455 81 87 C81.40992188 88.01320313 81.81984375 89.02640625 82.2421875 90.0703125 C82.7865517 91.4218374 83.33081729 92.77340202 83.875 94.125 C84.14441406 94.79015625 84.41382813 95.4553125 84.69140625 96.140625 C87.2229932 102.43871935 89.24003512 108.16047104 89.75 115 C89.84796875 116.175625 89.9459375 117.35125 90.046875 118.5625 C89.98461415 123.12829562 88.99143293 126.53267927 86.4375 130.3125 C82.85839107 132.79034464 79.27003019 132.81752008 75 133 C75.33 133.66 75.66 134.32 76 135 C76.2805537 138.2263676 76.26789202 140.40118254 74.9375 143.375 C73 145 73 145 69.5625 145.5 C66 145 66 145 63.5625 143.375 C61.51615993 140.26456309 61.40192272 138.66322334 62 135 C64 132.125 64 132.125 66 130 C64.68128906 129.60361328 64.68128906 129.60361328 63.3359375 129.19921875 C46.31970768 123.08214316 34.47268091 108.20746863 26.80859375 92.43383789 C19.23794786 75.98850236 16.25434045 58.21105963 12.97851562 40.52734375 C10.56507233 27.68535558 7.88628798 14.89323443 0.91796875 3.63671875 C0 2 0 2 0 0 Z M77 80 C78 82 78 82 78 82 Z M78 82 C78.33 82.99 78.66 83.98 79 85 C79 84.01 79 83.02 79 82 C78.67 82 78.34 82 78 82 Z " fill="#4AAA12" transform="translate(143,137)"/>
<path d="M0 0 C4.62 0 9.24 0 14 0 C17.96 10.23 21.92 20.46 26 31 C28.06093545 27.90859682 29.25551845 25.04105143 30.6015625 21.58203125 C30.8428891 20.96478683 31.0842157 20.34754242 31.33285522 19.71159363 C32.10026323 17.74651974 32.86269047 15.7795566 33.625 13.8125 C34.14550565 12.47708578 34.66633531 11.14179779 35.1875 9.80664062 C36.46270646 6.53943172 37.73115592 3.26971359 39 0 C43.95 0 48.9 0 54 0 C49.73857551 11.62447677 45.10506169 23.01484779 40.1875 34.375 C39.50032286 35.97121292 38.81347248 37.56756656 38.12695312 39.1640625 C33.21627103 50.56745793 33.21627103 50.56745793 32 53 C28.37 53 24.74 53 21 53 C15.34434147 40.26939221 9.73333238 27.52016781 4.3125 14.6875 C3.8788916 13.67494141 3.4452832 12.66238281 2.99853516 11.61914062 C2.60327637 10.67619141 2.20801758 9.73324219 1.80078125 8.76171875 C1.45184814 7.93631592 1.10291504 7.11091309 0.7434082 6.26049805 C0 4 0 4 0 0 Z " fill="#000000" transform="translate(266,268)"/>
<path d="M0 0 C3.96 0 7.92 0 12 0 C12 3.96 12 7.92 12 12 C14.31 12 16.62 12 19 12 C19 15.3 19 18.6 19 22 C16.69 22 14.38 22 12 22 C12.495 27.94 12.495 27.94 13 34 C14.65 34.33 16.3 34.66 18 35 C19.31626692 38.61973402 20 41.09567131 20 45 C15.80888835 47.09555583 10.55233879 46.55842023 6 46 C3.02638914 43.78436838 1.63040207 42.26080415 0 39 C-0.07194869 36.11629667 -0.09291708 33.25760336 -0.0625 30.375 C-0.05798828 29.57320313 -0.05347656 28.77140625 -0.04882812 27.9453125 C-0.03703168 25.96350994 -0.01909605 23.98174567 0 22 C-0.804375 22.020625 -1.60875 22.04125 -2.4375 22.0625 C-5 22 -5 22 -6 21 C-6.99 21.99 -7.98 22.98 -9 24 C-9.33 23.67 -9.66 23.34 -10 23 C-14.09143461 22.55312623 -14.09143461 22.55312623 -17.66333008 24.23754883 C-19.32871423 26.43342247 -19.41989648 27.71291525 -19.51171875 30.44921875 C-19.54716797 31.29677734 -19.58261719 32.14433594 -19.61914062 33.01757812 C-19.65297852 34.33918945 -19.65297852 34.33918945 -19.6875 35.6875 C-19.72166016 36.58017578 -19.75582031 37.47285156 -19.79101562 38.39257812 C-19.87344467 40.59461121 -19.93840047 42.79728582 -20 45 C-23.96 45 -27.92 45 -32 45 C-32 34.11 -32 23.22 -32 12 C-28.04 12 -24.08 12 -20 12 C-19.67 12.66 -19.34 13.32 -19 14 C-17.9171875 13.2265625 -17.9171875 13.2265625 -16.8125 12.4375 C-11.67112073 9.77344391 -5.51742652 11.3205543 0 12 C0 8.04 0 4.08 0 0 Z " fill="#000000" transform="translate(388,276)"/>
<path d="M0 0 C12.21 0 24.42 0 37 0 C37 3.96 37 7.92 37 12 C33.04 12 29.08 12 25 12 C25 25.53 25 39.06 25 53 C20.71 53 16.42 53 12 53 C12 39.47 12 25.94 12 12 C8.04 12 4.08 12 0 12 C0 8.04 0 4.08 0 0 Z " fill="#000000" transform="translate(86,268)"/>
<path d="M0 0 C5.38707299 5.38707299 6 9.39933827 6 17 C-1.59 17.33 -9.18 17.66 -17 18 C-15.33687677 21.11697941 -15.33687677 21.11697941 -12.75 21.875 C-9.85110498 22.24064164 -9.85110498 22.24064164 -7.0625 20.4375 C-4 19 -4 19 -0.8125 19.6875 C2 21 2 21 5 23 C3.50521886 26.80489745 1.30557786 28.66190835 -2 31 C-7.61423637 32.87141212 -14.59714453 33.07766851 -20.26953125 31.28125 C-25.07010742 28.68747464 -28.28509928 25.14470215 -30 20 C-30.50442239 14.7325072 -30.6716659 10.36820832 -28.3125 5.5625 C-20.40337935 -3.20166072 -10.61585526 -5.92128816 0 0 Z M-15.3125 6.3125 C-15.869375 6.869375 -16.42625 7.42625 -17 8 C-17 8.66 -17 9.32 -17 10 C-13.37 10 -9.74 10 -6 10 C-7.49701776 5.89304073 -7.49701776 5.89304073 -10.375 5.0625 C-13.06244667 4.77343776 -13.06244667 4.77343776 -15.3125 6.3125 Z " fill="#000000" transform="translate(347,290)"/>
<path d="M0 0 C3.58305572 1.96053992 5.09012222 3.42191102 7.3125 6.8125 C7.76660156 9.7668457 7.76660156 9.7668457 7.703125 12.98828125 C7.69023437 14.14521484 7.67734375 15.30214844 7.6640625 16.49414062 C7.63054687 17.69232422 7.59703125 18.89050781 7.5625 20.125 C7.54445312 21.34251953 7.52640625 22.56003906 7.5078125 23.81445312 C7.4607586 26.81413955 7.38901797 29.81342052 7.3125 32.8125 C3.3525 32.8125 -0.6075 32.8125 -4.6875 32.8125 C-4.73648438 31.40355469 -4.78546875 29.99460937 -4.8359375 28.54296875 C-4.91097003 26.69529261 -4.98651766 24.84763733 -5.0625 23 C-5.0934375 22.07123047 -5.124375 21.14246094 -5.15625 20.18554688 C-5.19492188 19.29287109 -5.23359375 18.40019531 -5.2734375 17.48046875 C-5.32056885 16.24719849 -5.32056885 16.24719849 -5.36865234 14.98901367 C-5.57123622 12.52297063 -5.57123622 12.52297063 -7.6875 9.8125 C-10.14422892 9.14564062 -10.14422892 9.14564062 -12.6875 9.8125 C-16.32259802 14.19393456 -16.22493183 18.69253241 -16.375 24.125 C-16.40916016 24.96095703 -16.44332031 25.79691406 -16.47851562 26.65820312 C-16.56055461 28.70917772 -16.6257151 30.76081538 -16.6875 32.8125 C-20.6475 32.8125 -24.6075 32.8125 -28.6875 32.8125 C-28.6875 21.9225 -28.6875 11.0325 -28.6875 -0.1875 C-24.7275 -0.1875 -20.7675 -0.1875 -16.6875 -0.1875 C-16.3575 0.4725 -16.0275 1.1325 -15.6875 1.8125 C-15.006875 1.3175 -14.32625 0.8225 -13.625 0.3125 C-8.76548048 -2.16895678 -5.10302172 -1.64334598 0 0 Z " fill="#000000" transform="translate(193.6875,288.1875)"/>
<path d="M0 0 C3.96 0 7.92 0 12 0 C12.33 7.59 12.66 15.18 13 23 C15.64 23 18.28 23 21 23 C23.34920874 18.31113215 23.43045925 13.8225651 23.625 8.6875 C23.66367188 7.85154297 23.70234375 7.01558594 23.7421875 6.15429688 C23.83595159 4.10320741 23.91904245 2.05163485 24 0 C27.96 0 31.92 0 36 0 C36.08128539 3.6879481 36.14064175 7.3740864 36.1875 11.0625 C36.21263672 12.10083984 36.23777344 13.13917969 36.26367188 14.20898438 C36.32150905 20.28188767 35.99647174 24.66729605 33 30 C28.45940142 34.25681117 23.63803853 34.23666476 17.6875 34.3125 C16.94048828 34.34150391 16.19347656 34.37050781 15.42382812 34.40039062 C10.14723942 34.46061508 7.12400386 33.5757611 3 30 C0.26706919 26.23158577 -0.36413901 23.66903543 -0.29296875 19.04296875 C-0.28330078 17.93115234 -0.27363281 16.81933594 -0.26367188 15.67382812 C-0.23853516 14.52333984 -0.21339844 13.37285156 -0.1875 12.1875 C-0.17396484 11.01767578 -0.16042969 9.84785156 -0.14648438 8.64257812 C-0.11120612 5.76152096 -0.05740143 2.8807013 0 0 Z " fill="#000000" transform="translate(125,288)"/>
<path d="M0 0 C3.96 0 7.92 0 12 0 C12 10.89 12 21.78 12 33 C8.04 33 4.08 33 0 33 C0 22.11 0 11.22 0 0 Z " fill="#000000" transform="translate(206,288)"/>
<path d="M0 0 C3.875 0.9375 3.875 0.9375 5.875 3.9375 C6.22245351 7.20356297 6.15873354 9.30327208 4.8125 12.3125 C2.875 13.9375 2.875 13.9375 -0.5625 14.4375 C-4.125 13.9375 -4.125 13.9375 -6.5625 12.3125 C-8.59661336 9.22064769 -8.73105429 7.57382575 -8.125 3.9375 C-5.87958727 0.28870431 -4.10291376 -0.35807247 0 0 Z " fill="#040404" transform="translate(213.125,268.0625)"/>
<path d="M0 0 C0.99 0.66 1.98 1.32 3 2 C3.1875 5.125 3.1875 5.125 3 8 C1.68 8.33 0.36 8.66 -1 9 C-1.625 5.625 -1.625 5.625 -2 2 C-1.34 1.34 -0.68 0.68 0 0 Z " fill="#D8D8D8" transform="translate(211,273)"/>
</svg>
